<svg width="32" height="32" viewBox="0 0 32 32" fill="none" xmlns="http://www.w3.org/2000/svg">
<circle cx="16" cy="16" r="16" fill="black"/>
<path d="M5.6078 13.4414H7.31288L8.48768 16.248L9.63612 13.4414H11.309V13.7344C11.1859 13.7363 11.0824 13.7471 10.9984 13.7666C10.9144 13.7842 10.8441 13.8154 10.7875 13.8604C10.7562 13.8857 10.7318 13.916 10.7142 13.9512C10.6986 13.9844 10.6879 14.0283 10.682 14.083C10.6762 14.1377 10.6732 14.2109 10.6732 14.3027V17.1357C10.6732 17.2275 10.6762 17.3018 10.682 17.3584C10.6879 17.4131 10.6986 17.457 10.7142 17.4902C10.7318 17.5234 10.7562 17.5537 10.7875 17.5811C10.8441 17.624 10.9154 17.6553 11.0014 17.6748C11.0892 17.6924 11.2015 17.7031 11.3383 17.707V18H9.09413V17.707C9.2328 17.7031 9.3451 17.6924 9.43104 17.6748C9.51893 17.6553 9.5912 17.624 9.64784 17.5811C9.67909 17.5537 9.70253 17.5234 9.71815 17.4902C9.73573 17.457 9.74745 17.4131 9.75331 17.3584C9.75917 17.3018 9.7621 17.2275 9.7621 17.1357V14.1533H9.74159L8.34413 17.5547H8.05116L6.59803 14.0771H6.58046V16.8369C6.58046 17.0322 6.59608 17.1826 6.62733 17.2881C6.66053 17.3936 6.70546 17.4766 6.7621 17.5371C6.81874 17.5977 6.88221 17.6406 6.95253 17.666C7.02479 17.6895 7.12245 17.7031 7.24549 17.707V18H5.56092V17.707C5.64296 17.7051 5.71034 17.6982 5.76307 17.6865C5.81776 17.6748 5.86464 17.6572 5.9037 17.6338C5.94276 17.6084 5.98085 17.5762 6.01796 17.5371C6.0785 17.4746 6.12342 17.3916 6.15272 17.2881C6.18202 17.1826 6.19667 17.0322 6.19667 16.8369V14.3027C6.19667 14.1934 6.18983 14.1064 6.17616 14.042C6.16249 13.9775 6.12733 13.9229 6.07069 13.8779C6.04139 13.8525 6.00819 13.8301 5.97108 13.8105C5.93592 13.791 5.89003 13.7744 5.83339 13.7607C5.77674 13.7471 5.70155 13.7363 5.6078 13.7285V13.4414ZM15.7357 12.7207H16.1576V18.7207H15.7357V12.7207ZM23.4467 13.3213C23.8041 13.3213 24.1283 13.3809 24.4193 13.5C24.7103 13.6172 24.9613 13.7842 25.1723 14.001C25.3832 14.2158 25.5453 14.4697 25.6586 14.7627C25.7719 15.0537 25.8285 15.373 25.8285 15.7207C25.8285 16.0684 25.7719 16.3887 25.6586 16.6816C25.5453 16.9727 25.3832 17.2266 25.1723 17.4434C24.9613 17.6582 24.7103 17.8252 24.4193 17.9443C24.1283 18.0615 23.8041 18.1201 23.4467 18.1201C23.0892 18.1201 22.765 18.0615 22.474 17.9443C22.183 17.8252 21.932 17.6582 21.7211 17.4434C21.5101 17.2266 21.348 16.9727 21.2348 16.6816C21.1215 16.3887 21.0648 16.0684 21.0648 15.7207C21.0648 15.373 21.1215 15.0537 21.2348 14.7627C21.348 14.4697 21.5101 14.2158 21.7211 14.001C21.932 13.7842 22.183 13.6172 22.474 13.5C22.765 13.3809 23.0892 13.3213 23.4467 13.3213ZM23.4467 13.6494C23.2553 13.6494 23.0785 13.6982 22.9164 13.7959C22.7543 13.8936 22.6127 14.0332 22.4916 14.2148C22.3724 14.3965 22.2797 14.6143 22.2133 14.8682C22.1469 15.1221 22.1137 15.4062 22.1137 15.7207C22.1137 16.0332 22.1469 16.3164 22.2133 16.5703C22.2797 16.8223 22.3724 17.0381 22.4916 17.2178C22.6127 17.3955 22.7543 17.5322 22.9164 17.6279C23.0785 17.7236 23.2553 17.7715 23.4467 17.7715C23.6381 17.7715 23.8148 17.7236 23.9769 17.6279C24.139 17.5322 24.2797 17.3955 24.3988 17.2178C24.5199 17.0381 24.6137 16.8223 24.6801 16.5703C24.7465 16.3164 24.7797 16.0332 24.7797 15.7207C24.7797 15.4062 24.7465 15.1221 24.6801 14.8682C24.6137 14.6143 24.5199 14.3965 24.3988 14.2148C24.2797 14.0332 24.139 13.8936 23.9769 13.7959C23.8148 13.6982 23.6381 13.6494 23.4467 13.6494Z" fill="white"/>
</svg>
