<svg width="365" height="241" viewBox="0 0 365 241" fill="none" xmlns="http://www.w3.org/2000/svg">
<path d="M75.9414 173.648H82.9375L92.4648 194.303L102.221 173.648H108.9V174.949C107.365 175.137 106.398 175.389 106 175.705C105.566 176.033 105.35 176.725 105.35 177.779V196.869C105.35 197.912 105.596 198.633 106.088 199.031C106.463 199.336 107.4 199.559 108.9 199.699V201H99.1973V199.699C100.756 199.559 101.74 199.301 102.15 198.926C102.584 198.527 102.801 197.842 102.801 196.869V177.252H102.643L92.7285 198.258H91.3223L81.6367 176.777H81.4961V196.869C81.4961 197.912 81.7129 198.604 82.1465 198.943C82.5566 199.271 83.5234 199.523 85.0469 199.699V201H75.9414V199.699C77.4531 199.488 78.4141 199.225 78.8242 198.908C79.2812 198.557 79.5098 197.877 79.5098 196.869V177.779C79.5098 176.748 79.2695 176.057 78.7891 175.705C78.3789 175.4 77.4297 175.148 75.9414 174.949V173.648ZM127.674 173.104H129.062L138.977 195.99C139.574 197.373 140.236 198.34 140.963 198.891C141.549 199.324 142.352 199.594 143.371 199.699V201H133.527V199.699C135.766 199.512 136.885 199.061 136.885 198.346C136.885 198.111 136.727 197.637 136.41 196.922L133.826 191.086H122.119L119.781 196.5C119.465 197.227 119.307 197.783 119.307 198.17C119.307 199.072 120.355 199.582 122.453 199.699V201H113.699V199.699C115.527 199.441 116.799 198.469 117.514 196.781L127.674 173.104ZM127.99 176.848L122.734 189.293H133.281L127.99 176.848ZM175.293 181.998H173.957C172.773 177.264 169.75 174.896 164.887 174.896C161.535 174.896 158.945 176.297 157.117 179.098C155.676 181.324 154.955 184.107 154.955 187.447C154.955 190.271 155.623 192.703 156.959 194.742C158.084 196.453 159.555 197.713 161.371 198.521C162.59 199.072 163.891 199.348 165.273 199.348C170.266 199.348 173.605 196.693 175.293 191.385L176.734 192C175.75 195.316 174.361 197.725 172.568 199.225C170.6 200.865 168.033 201.686 164.869 201.686C160.99 201.686 157.838 200.309 155.412 197.555C153.092 194.93 151.932 191.572 151.932 187.482C151.932 184.096 152.734 181.148 154.34 178.641C155.77 176.414 157.662 174.82 160.018 173.859C161.506 173.25 163.082 172.945 164.746 172.945C167.184 172.945 169.551 173.59 171.848 174.879C172.398 175.184 172.826 175.336 173.131 175.336C173.541 175.336 173.828 174.768 173.992 173.631H175.293V181.998ZM189.162 173.648H211.838L212.383 181.559H211.117C210.812 179.285 210.133 177.691 209.078 176.777C208.047 175.887 206.482 175.441 204.385 175.441H201.836V196.869C201.836 197.947 202.064 198.668 202.521 199.031C202.885 199.324 203.846 199.547 205.404 199.699V201H195.596V199.699C197.225 199.559 198.232 199.301 198.619 198.926C198.982 198.574 199.164 197.889 199.164 196.869V175.441H196.615C194.424 175.441 192.818 175.928 191.799 176.9C190.803 177.838 190.164 179.391 189.883 181.559H188.617L189.162 173.648ZM224.301 173.648H246.361L246.748 181.154H245.5C245.23 178.904 244.551 177.369 243.461 176.549C242.5 175.811 240.936 175.441 238.768 175.441H233.213C232.193 175.441 231.49 175.623 231.104 175.986C230.67 176.373 230.453 177.064 230.453 178.061V185.584H235.164C236.875 185.584 238.082 185.268 238.785 184.635C239.441 184.049 239.781 183.023 239.805 181.559H241.07V191.842H239.805C239.758 190.201 239.389 189.035 238.697 188.344C238.041 187.699 236.863 187.377 235.164 187.377H230.453V196.57C230.453 197.625 230.682 198.322 231.139 198.662C231.607 199.025 232.615 199.207 234.162 199.207H238.293C240.965 199.207 242.898 198.75 244.094 197.836C245.324 196.898 246.045 195.193 246.256 192.721H247.504L246.889 201H224.301V199.717C225.789 199.6 226.744 199.354 227.166 198.979C227.635 198.568 227.869 197.865 227.869 196.869V177.779C227.869 176.725 227.605 176.016 227.078 175.652C226.551 175.301 225.625 175.061 224.301 174.932V173.648ZM260.951 173.648H272.975C275.576 173.648 277.832 174.094 279.742 174.984C280.281 175.242 280.756 175.518 281.166 175.811C283.076 177.205 284.031 179.086 284.031 181.453C284.031 183.305 283.451 184.881 282.291 186.182C281.307 187.26 279.877 188.045 278.002 188.537C276.467 188.924 274.404 189.117 271.814 189.117H267.104V196.852C267.104 197.812 267.402 198.504 268 198.926C268.539 199.312 269.523 199.57 270.953 199.699V201H260.951V199.699C262.568 199.512 263.57 199.242 263.957 198.891C264.355 198.539 264.555 197.859 264.555 196.852V177.779C264.555 176.748 264.279 176.045 263.729 175.67C263.213 175.307 262.287 175.066 260.951 174.949V173.648ZM267.104 187.324H271.498C274.768 187.324 277.158 186.891 278.67 186.023C280.229 185.133 281.008 183.621 281.008 181.488C281.008 177.457 278.148 175.441 272.43 175.441H269.916C268.873 175.441 268.152 175.623 267.754 175.986C267.32 176.373 267.104 177.07 267.104 178.078V187.324ZM128.535 208.945C132.684 208.945 135.965 210.609 138.379 213.938C140.289 216.562 141.244 219.721 141.244 223.412C141.244 226.857 140.471 229.799 138.924 232.236C136.604 235.869 133.129 237.686 128.5 237.686C124.211 237.686 120.9 236.104 118.568 232.939C116.693 230.408 115.756 227.227 115.756 223.395C115.756 219.398 116.852 216.064 119.043 213.393C121.457 210.428 124.621 208.945 128.535 208.945ZM128.465 210.896C125.266 210.896 122.775 212.227 120.994 214.887C119.518 217.078 118.779 219.896 118.779 223.342C118.779 226.189 119.312 228.633 120.379 230.672C121.176 232.195 122.219 233.391 123.508 234.258C124.973 235.242 126.637 235.734 128.5 235.734C131.512 235.734 133.914 234.527 135.707 232.113C137.383 229.875 138.221 226.945 138.221 223.324C138.221 219.598 137.359 216.615 135.637 214.377C133.855 212.057 131.465 210.896 128.465 210.896ZM161.143 209.648V210.949C159.502 211.102 158.488 211.359 158.102 211.723C157.762 212.039 157.592 212.725 157.592 213.779V221.918C159.795 221.742 161.547 221.314 162.848 220.635C165.203 219.404 167.002 216.967 168.244 213.322C169.24 210.404 170.869 208.945 173.131 208.945C174.057 208.945 174.877 209.162 175.592 209.596C176.529 210.17 176.998 210.92 176.998 211.846C176.998 212.326 176.881 212.766 176.646 213.164C176.26 213.797 175.668 214.113 174.871 214.113C174.32 214.113 173.857 213.955 173.482 213.639C173.061 213.275 172.85 212.789 172.85 212.18C172.85 211.547 173.055 211.002 173.465 210.545C172.562 210.545 171.836 210.861 171.285 211.494C170.781 212.068 170.342 212.918 169.967 214.043C168.795 217.559 167.078 220.078 164.816 221.602L174.906 233.432C175.949 234.662 177.35 235.418 179.107 235.699V237H169.035V235.699C171.074 235.535 172.094 235.207 172.094 234.715C172.094 234.434 171.924 234.094 171.584 233.695L162.584 222.744C160.943 223.307 159.279 223.635 157.592 223.729V232.869C157.592 233.947 157.814 234.668 158.26 235.031C158.623 235.324 159.584 235.547 161.143 235.699V237H151.439V235.699C153.08 235.559 154.094 235.301 154.48 234.926C154.832 234.598 155.008 233.912 155.008 232.869V213.779C155.008 212.701 154.814 211.998 154.428 211.67C154.006 211.295 153.01 211.055 151.439 210.949V209.648H161.143ZM200.535 208.945C204.684 208.945 207.965 210.609 210.379 213.938C212.289 216.562 213.244 219.721 213.244 223.412C213.244 226.857 212.471 229.799 210.924 232.236C208.604 235.869 205.129 237.686 200.5 237.686C196.211 237.686 192.9 236.104 190.568 232.939C188.693 230.408 187.756 227.227 187.756 223.395C187.756 219.398 188.852 216.064 191.043 213.393C193.457 210.428 196.621 208.945 200.535 208.945ZM200.465 210.896C197.266 210.896 194.775 212.227 192.994 214.887C191.518 217.078 190.779 219.896 190.779 223.342C190.779 226.189 191.312 228.633 192.379 230.672C193.176 232.195 194.219 233.391 195.508 234.258C196.973 235.242 198.637 235.734 200.5 235.734C203.512 235.734 205.914 234.527 207.707 232.113C209.383 229.875 210.221 226.945 210.221 223.324C210.221 219.598 209.359 216.615 207.637 214.377C205.855 212.057 203.465 210.896 200.465 210.896ZM222.754 209.648H232.475V210.949C230.775 211.031 229.732 211.277 229.346 211.688C229.029 212.027 228.871 212.725 228.871 213.779V221.584H244.146V213.779C244.146 212.666 243.965 211.945 243.602 211.617C243.18 211.242 242.16 211.02 240.543 210.949V209.648H250.264V210.949C248.6 211.02 247.568 211.266 247.17 211.688C246.854 212.027 246.695 212.725 246.695 213.779V232.852C246.695 233.988 246.877 234.709 247.24 235.014C247.65 235.377 248.658 235.605 250.264 235.699V237H240.543V235.699C242.254 235.594 243.291 235.348 243.654 234.961C243.982 234.621 244.146 233.918 244.146 232.852V223.377H228.871V232.852C228.871 234.152 229.146 234.943 229.697 235.225C230.143 235.447 231.068 235.605 232.475 235.699V237H222.754V235.699C224.406 235.605 225.432 235.359 225.83 234.961C226.158 234.645 226.322 233.941 226.322 232.852V213.779C226.322 212.666 226.141 211.945 225.777 211.617C225.367 211.254 224.359 211.031 222.754 210.949V209.648Z" fill="black"/>
<g filter="url(#filter0_d_1_9)">
<circle cx="182" cy="75" r="75" fill="black"/>
</g>
<path d="M126.859 62.6875H135.953L142.219 77.6562L148.344 62.6875H157.266V64.25C156.609 64.2604 156.057 64.3177 155.609 64.4219C155.161 64.5156 154.786 64.6823 154.484 64.9219C154.318 65.0573 154.188 65.2188 154.094 65.4062C154.01 65.5833 153.953 65.8177 153.922 66.1094C153.891 66.401 153.875 66.7917 153.875 67.2812V82.3906C153.875 82.8802 153.891 83.276 153.922 83.5781C153.953 83.8698 154.01 84.1042 154.094 84.2812C154.188 84.4583 154.318 84.6198 154.484 84.7656C154.786 84.9948 155.167 85.1615 155.625 85.2656C156.094 85.3594 156.693 85.4167 157.422 85.4375V87H145.453V85.4375C146.193 85.4167 146.792 85.3594 147.25 85.2656C147.719 85.1615 148.104 84.9948 148.406 84.7656C148.573 84.6198 148.698 84.4583 148.781 84.2812C148.875 84.1042 148.938 83.8698 148.969 83.5781C149 83.276 149.016 82.8802 149.016 82.3906V66.4844H148.906L141.453 84.625H139.891L132.141 66.0781H132.047V80.7969C132.047 81.8385 132.13 82.6406 132.297 83.2031C132.474 83.7656 132.714 84.2083 133.016 84.5312C133.318 84.8542 133.656 85.0833 134.031 85.2188C134.417 85.3438 134.938 85.4167 135.594 85.4375V87H126.609V85.4375C127.047 85.4271 127.406 85.3906 127.688 85.3281C127.979 85.2656 128.229 85.1719 128.438 85.0469C128.646 84.9115 128.849 84.7396 129.047 84.5312C129.37 84.1979 129.609 83.7552 129.766 83.2031C129.922 82.6406 130 81.8385 130 80.7969V67.2812C130 66.6979 129.964 66.2344 129.891 65.8906C129.818 65.5469 129.63 65.2552 129.328 65.0156C129.172 64.8802 128.995 64.7604 128.797 64.6562C128.609 64.5521 128.365 64.4635 128.062 64.3906C127.76 64.3177 127.359 64.2604 126.859 64.2188V62.6875ZM180.875 58.8438H183.125V90.8438H180.875V58.8438ZM222 62.0469C223.906 62.0469 225.635 62.3646 227.188 63C228.74 63.625 230.078 64.5156 231.203 65.6719C232.328 66.8177 233.193 68.1719 233.797 69.7344C234.401 71.2865 234.703 72.9896 234.703 74.8438C234.703 76.6979 234.401 78.4062 233.797 79.9688C233.193 81.5208 232.328 82.875 231.203 84.0312C230.078 85.1771 228.74 86.0677 227.188 86.7031C225.635 87.3281 223.906 87.6406 222 87.6406C220.094 87.6406 218.365 87.3281 216.812 86.7031C215.26 86.0677 213.922 85.1771 212.797 84.0312C211.672 82.875 210.807 81.5208 210.203 79.9688C209.599 78.4062 209.297 76.6979 209.297 74.8438C209.297 72.9896 209.599 71.2865 210.203 69.7344C210.807 68.1719 211.672 66.8177 212.797 65.6719C213.922 64.5156 215.26 63.625 216.812 63C218.365 62.3646 220.094 62.0469 222 62.0469ZM222 63.7969C220.979 63.7969 220.036 64.0573 219.172 64.5781C218.307 65.099 217.552 65.8438 216.906 66.8125C216.271 67.7812 215.776 68.9427 215.422 70.2969C215.068 71.651 214.891 73.1667 214.891 74.8438C214.891 76.5104 215.068 78.0208 215.422 79.375C215.776 80.7188 216.271 81.8698 216.906 82.8281C217.552 83.776 218.307 84.5052 219.172 85.0156C220.036 85.526 220.979 85.7812 222 85.7812C223.021 85.7812 223.964 85.526 224.828 85.0156C225.693 84.5052 226.443 83.776 227.078 82.8281C227.724 81.8698 228.224 80.7188 228.578 79.375C228.932 78.0208 229.109 76.5104 229.109 74.8438C229.109 73.1667 228.932 71.651 228.578 70.2969C228.224 68.9427 227.724 67.7812 227.078 66.8125C226.443 65.8438 225.693 65.099 224.828 64.5781C223.964 64.0573 223.021 63.7969 222 63.7969Z" fill="white"/>
<defs>
<filter id="filter0_d_1_9" x="107" y="0" width="182" height="170" filterUnits="userSpaceOnUse" color-interpolation-filters="sRGB">
<feFlood flood-opacity="0" result="BackgroundImageFix"/>
<feColorMatrix in="SourceAlpha" type="matrix" values="0 0 0 0 0 0 0 0 0 0 0 0 0 0 0 0 0 0 127 0" result="hardAlpha"/>
<feOffset dx="28" dy="16"/>
<feGaussianBlur stdDeviation="2"/>
<feComposite in2="hardAlpha" operator="out"/>
<feColorMatrix type="matrix" values="0 0 0 0 0 0 0 0 0 0 0 0 0 0 0 0 0 0 0.13 0"/>
<feBlend mode="normal" in2="BackgroundImageFix" result="effect1_dropShadow_1_9"/>
<feBlend mode="normal" in="SourceGraphic" in2="effect1_dropShadow_1_9" result="shape"/>
</filter>
</defs>
</svg>
